<svg width="128" height="128" viewBox="0 0 128 128" fill="none" xmlns="http://www.w3.org/2000/svg">
<path d="M128 0H0V128H128V0Z" fill="black"/>
<path d="M107.452 32.6886V73.7856H114.015C114.026 74.0339 114.023 74.2827 114.004 74.5305C113.994 74.6112 113.876 74.7021 113.791 74.743C113.7 74.7642 113.605 74.7672 113.513 74.752H94.592V73.8329H101.18V33.3517L101.112 33.335L86.784 74.8877C86.6201 74.4512 86.4819 74.103 86.359 73.7497C83.7017 66.0877 81.0453 58.4252 78.3897 50.7622C76.4467 45.1661 74.5028 39.5656 72.5581 33.9609C72.3942 33.4899 72.2137 33.0137 71.6915 32.8179C71.5154 32.7547 71.3294 32.7235 71.1424 32.7257C66.9406 32.7206 62.7387 32.7206 58.5369 32.7257C58.4448 32.7257 58.3526 32.7347 58.2361 32.7398V73.728C58.3526 73.7529 58.4706 73.7696 58.5894 73.7779C60.5094 73.7689 62.4294 73.8061 64.3494 73.7357C68.2291 73.5949 71.0925 71.703 73.1545 68.4877C74.2438 66.7891 74.8825 64.896 75.5533 63.0144C75.701 62.642 75.8292 62.2622 75.9373 61.8765C76.0358 61.4681 76.2573 61.3581 76.672 61.4771V74.6611H45.3837V73.8125H51.968V32.736H45.3888V31.7542H77.5475C78.2285 31.7542 78.3411 31.8374 78.5625 32.4864C80.1839 37.2002 81.8052 41.9149 83.4265 46.6304C85.1528 51.6548 86.8766 56.6792 88.5977 61.7037C88.8625 62.5181 89.1693 63.3184 89.5168 64.1011C89.7984 63.2973 90.0838 62.496 90.3603 61.6909C93.6704 52.0516 96.9817 42.4166 100.294 32.7859C100.669 31.6979 100.454 31.7517 101.751 31.7542L113.271 31.7696C114.098 31.7696 114.115 31.7913 113.96 32.6886H107.452Z" fill="white"/>
<path d="M36.174 51.5725C36.9714 51.7325 37.7753 51.8669 38.5637 52.0589C41.2172 52.6989 43.6274 53.824 45.5602 55.8003C48.0921 58.3872 48.8447 61.4937 48.1202 64.9958C47.5865 67.5904 46.3999 69.8022 44.2917 71.4662C42.8172 72.6297 41.1391 73.3952 39.3612 73.9494C37.3786 74.588 35.309 74.9149 33.2261 74.9184C26.8658 74.88 20.5055 74.7904 14.1452 74.7264C14.0839 74.7232 14.0228 74.7168 13.9621 74.7072V73.8022H20.5337V32.7462H13.9724V31.7542H14.4306C18.8338 31.7354 23.2362 31.7145 27.6377 31.6915C29.5961 31.6774 31.5557 31.575 33.5129 31.6083C36.8204 31.6646 39.8834 32.5555 42.6162 34.4781C43.7106 35.2342 44.618 36.2302 45.2692 37.3901C45.9204 38.5501 46.2983 39.8433 46.3739 41.1714C46.4496 42.4995 46.2211 43.8273 45.7059 45.0537C45.1907 46.2801 44.4023 47.3727 43.4009 48.2483C41.4591 49.9712 39.1769 50.9504 36.6412 51.4099C36.4837 51.4381 36.3289 51.4752 36.1727 51.5072L36.174 51.5725ZM26.7993 73.7651C26.8825 73.7804 26.9452 73.7932 27.0092 73.8022C29.3939 74.1047 31.8074 74.1013 34.1913 73.792C37.6293 73.344 39.9116 71.3433 40.7423 67.9884C41.3669 65.4617 41.4425 62.8902 41.2159 60.3085C41.0769 58.4962 40.5016 56.7444 39.5391 55.2025C38.3436 53.3107 36.5951 52.3494 34.3973 52.2585C32.0268 52.1561 29.6524 52.1305 27.2805 52.064C27.1257 52.064 26.9695 52.064 26.7993 52.064V73.7651ZM26.8159 32.6553V51.2537C29.1775 51.2 31.5148 51.2269 33.838 51.072C36.398 50.9005 38.1221 49.5245 38.917 47.0579C39.894 44.0972 39.983 40.9153 39.173 37.9046C38.4165 35.04 36.6271 33.3056 33.6805 32.7769C31.4124 32.3699 29.1391 32.5504 26.8159 32.6553V32.6553Z" fill="white"/>
<path d="M13.9148 84.0013H17.2159C18.2097 84.0034 19.1736 84.3412 19.9513 84.96C20.2447 85.1926 20.5007 85.4689 20.7103 85.7792C20.9384 86.1189 21.1144 86.4908 21.2326 86.8825C21.4903 87.8074 21.4903 88.7852 21.2326 89.7101C21.1147 90.1023 20.9387 90.4747 20.7103 90.8147C20.5007 91.125 20.2447 91.4013 19.9513 91.6339C19.1714 92.2485 18.2089 92.5859 17.2159 92.5926H13.9148V84.0013ZM14.9388 91.6467H16.8806C17.3447 91.6507 17.8068 91.5851 18.2515 91.4521C18.6544 91.3322 19.0271 91.1275 19.3446 90.8518C19.6624 90.5653 19.911 90.2104 20.0716 89.8137C20.4283 88.834 20.4283 87.7599 20.0716 86.7801C19.911 86.3835 19.6624 86.0286 19.3446 85.7421C19.0271 85.4663 18.6544 85.2617 18.2515 85.1417C17.8068 85.0088 17.3447 84.9432 16.8806 84.9472H14.9337L14.9388 91.6467Z" fill="white"/>
<path d="M34.8353 84.0013H35.8593V92.5926H34.8353V84.0013Z" fill="white"/>
<path d="M57.0676 92.0102C56.5784 92.2835 56.0537 92.4877 55.5085 92.617C54.9659 92.746 54.41 92.8113 53.8522 92.8115C53.2223 92.8186 52.5966 92.7075 52.0077 92.4838C51.4682 92.2763 50.9759 91.9625 50.56 91.561C50.1457 91.1577 49.8208 90.6719 49.6064 90.135C49.3743 89.5504 49.2591 88.9259 49.2672 88.297C49.2582 87.6619 49.3802 87.0319 49.6256 86.4461C49.852 85.909 50.1887 85.4254 50.6138 85.0266C51.0407 84.6302 51.5395 84.3191 52.0832 84.1101C52.6589 83.8883 53.2712 83.7771 53.888 83.7824C54.4422 83.7807 54.993 83.8671 55.52 84.0384C56.0505 84.2133 56.5312 84.5132 56.9216 84.9126L56.1536 85.7126C55.8581 85.3941 55.4951 85.1457 55.0912 84.9856C54.6855 84.8171 54.2506 84.7301 53.8112 84.7296C53.3425 84.7242 52.8776 84.8134 52.4442 84.992C52.029 85.1636 51.6531 85.4177 51.3391 85.7389C51.0251 86.0602 50.7797 86.4418 50.6176 86.8608C50.4418 87.3176 50.3549 87.8037 50.3616 88.2931C50.3555 88.7783 50.4424 89.2602 50.6176 89.7126C50.783 90.1355 51.0306 90.5214 51.346 90.848C51.6644 91.1718 52.0467 91.4259 52.4685 91.5942C52.9278 91.7763 53.4183 91.8667 53.9124 91.8605C54.2799 91.8578 54.646 91.8149 55.0042 91.7325C55.3664 91.6533 55.7173 91.529 56.0487 91.3626V88.7334H54.0698V87.7875H57.0676V92.0102Z" fill="white"/>
<path d="M70.9747 84.0013H76.375V84.9472H71.9936V87.6416H76.0832V88.5875H71.9936V91.648H76.5926V92.5939H70.9747V84.0013Z" fill="white"/>
<path d="M94.0198 85.5181C93.8605 85.2527 93.6231 85.0431 93.3402 84.9177C93.061 84.7956 92.7591 84.7336 92.4544 84.736C92.229 84.7358 92.0045 84.7642 91.7862 84.8205C91.5775 84.8735 91.3786 84.96 91.1974 85.0765C91.0235 85.19 90.8799 85.3442 90.7789 85.5257C90.6702 85.7267 90.6159 85.9527 90.6214 86.1811C90.6189 86.356 90.6497 86.5298 90.7123 86.6931C90.7783 86.85 90.8805 86.989 91.0106 87.0989C91.1784 87.2398 91.3665 87.3546 91.5686 87.4393C91.8492 87.5614 92.1369 87.6666 92.4301 87.7542C92.7616 87.8605 93.0829 87.9731 93.3939 88.0947C93.6901 88.2072 93.9682 88.3625 94.2195 88.5555C94.4595 88.7425 94.6545 88.9809 94.7904 89.2531C95.0316 89.7507 95.092 90.3167 94.9612 90.8539C94.8304 91.3912 94.5165 91.8661 94.0736 92.1971C93.7833 92.4086 93.4566 92.5648 93.1098 92.6579C92.7421 92.7596 92.3623 92.8109 91.9808 92.8102C91.7285 92.8097 91.4767 92.7874 91.2282 92.7437C90.9809 92.6999 90.739 92.6304 90.5062 92.5363C90.2752 92.4436 90.0571 92.3214 89.8573 92.1728C89.6527 92.0204 89.476 91.8337 89.335 91.6211L90.2093 90.9043C90.3903 91.2159 90.6611 91.4657 90.9862 91.6211C91.3146 91.7816 91.6755 91.8644 92.041 91.863C92.2651 91.8624 92.4879 91.8297 92.7027 91.7657C92.9174 91.7055 93.1203 91.6094 93.303 91.4816C93.4795 91.3575 93.6285 91.1985 93.7408 91.0144C93.855 90.8207 93.9135 90.5992 93.9098 90.3744C93.921 90.1508 93.8771 89.928 93.7818 89.7254C93.6829 89.5492 93.5411 89.4008 93.3696 89.2941C93.1488 89.1572 92.9125 89.0472 92.6656 88.9664L91.6698 88.6272C91.3792 88.5365 91.0956 88.4248 90.8211 88.2931C90.5737 88.1761 90.3465 88.0205 90.1478 87.8323C89.9548 87.6469 89.8019 87.4239 89.6986 87.1769C89.5828 86.8856 89.527 86.5739 89.5347 86.2605C89.5227 85.9024 89.598 85.5468 89.7541 85.2243C89.9102 84.9019 90.1424 84.6223 90.4307 84.4096C90.7127 84.2007 91.0289 84.0426 91.3651 83.9424C92.1596 83.7116 93.0063 83.7348 93.7869 84.0089C94.2066 84.1727 94.5766 84.4427 94.8608 84.7923L94.0198 85.5181Z" fill="white"/>
<path d="M114.225 84.9472H111.386V92.5926H110.362V84.9472H107.526V84.0013H114.225V84.9472Z" fill="white"/>
</svg>
